<svg xmlns="http://www.w3.org/2000/svg" viewBox="0 0 96 96" role="img" aria-labelledby="title desc">
  <title id="title">金色游戏资产概览模拟图</title>
  <desc id="desc">由收藏物品和完成进度组成的虚构游戏资产界面</desc>
  <defs><linearGradient id="bg" x1="0" y1="0" x2="1" y2="1"><stop stop-color="#78350f"/><stop offset="1" stop-color="#f59e0b"/></linearGradient></defs>
  <rect width="96" height="96" rx="12" fill="url(#bg)"/>
  <rect x="9" y="10" width="78" height="10" rx="5" fill="#fff" opacity=".18"/><rect x="9" y="10" width="51" height="10" rx="5" fill="#fde68a"/>
  <g><rect x="9" y="29" width="36" height="27" rx="7" fill="#fffbeb"/><rect x="51" y="29" width="36" height="27" rx="7" fill="#fef3c7"/></g>
  <path d="M18 49h18l-3-13H21z" fill="#f59e0b"/><circle cx="27" cy="37" r="5" fill="#fcd34d"/><path d="m69 34 4.2 8.1 8.8 1.2-6.4 6.1 1.5 8.6-8.1-4-8.1 4 1.5-8.6-6.4-6.1 8.8-1.2z" fill="#d97706"/>
  <rect x="9" y="65" width="78" height="22" rx="7" fill="#fff" opacity=".14"/>
  <circle cx="22" cy="76" r="7" fill="#fef3c7"/><path d="m19 76 2 2 4-5" fill="none" stroke="#d97706" stroke-width="2.5" stroke-linecap="round" stroke-linejoin="round"/>
  <rect x="34" y="70" width="40" height="6" rx="3" fill="#fff" opacity=".74"/><rect x="34" y="80" width="29" height="4" rx="2" fill="#fff" opacity=".28"/>
</svg>
